<svg width="174" height="280" viewBox="0 0 174 280" fill="none" xmlns="http://www.w3.org/2000/svg">
<path d="M15.4922 107.173C16.6306 102.904 19.9967 101.474 23.8678 100.682C27.8796 99.8613 31.2328 99.1832 35.4261 99.3418C38.501 99.4581 41.6316 99.5439 44.6392 100.263C46.7909 100.778 48.3809 102.152 50.3765 102.818C52.1901 103.422 54.2304 104.289 56.1347 104.535C64.9163 105.668 72.2646 109.255 79.356 114.627C82.103 116.708 84.6013 119.433 87.6898 121.035C89.381 121.912 91.6235 121.594 93.4689 121.893C97.6315 122.568 100.891 123.826 104.776 125.348C111.341 127.921 116.906 132.217 122.993 135.734C127.205 138.167 130.508 141.892 134.467 144.737C142.083 150.211 151.705 153.286 160.725 155.605C163.807 156.397 167.24 157.629 170.022 159.102C172.887 160.619 172.417 163.171 171.152 165.383C169.83 167.698 168.058 172.232 165.666 173.508C164.113 174.336 162.979 175.375 161.939 176.711C161.647 177.088 161.73 177.583 161.73 178.03C161.73 179.471 158.273 180.581 157.123 181.046C155.364 181.756 152.639 182.245 150.8 181.632C149.148 181.081 148.306 179.676 147.031 178.7C141.856 174.744 136.11 171.327 130.615 167.854C128.113 166.273 126.294 164 124.019 162.18C117.881 157.269 110.049 155.039 102.263 155.039C99.6403 155.039 96.9025 155.237 94.2855 155.019C93.2918 154.936 91.817 154.569 91.04 153.909C89.5729 152.662 86.6644 152.412 84.8421 151.647C78.1995 148.862 71.0962 147.588 64.3219 145.156C60.3285 143.723 56.3958 142.186 52.3029 141.094C49.8271 140.434 47.41 139.884 45.2674 138.456" stroke="#124E29" stroke-width="2.89512" stroke-linecap="round"/>
<path d="M34.3373 127.148C29.681 127.148 24.8662 127.136 20.9363 124.217C19.543 123.182 17.5215 121.2 17.3767 119.317C17.1943 116.947 16.2764 114.373 15.9528 111.947C15.685 109.938 15.4922 108.081 15.4922 106.042" stroke="#124E29" stroke-width="2.89512" stroke-linecap="round"/>
<path d="M14.3613 109.057C12.2579 109.057 9.53361 108.648 7.57705 109.518C6.5533 109.973 4.78423 110.44 6.61386 110.963C10.4975 112.072 13.0724 117.082 16.6227 118.857" stroke="#124E29" stroke-width="2.89512" stroke-linecap="round"/>
<path d="M23.7839 108.681C25.4869 108.681 26.6676 109.197 28.3068 109.811" stroke="#124E29" stroke-width="2.89512" stroke-linecap="round"/>
<path d="M46.0213 99.6348C46.0213 91.888 45.0316 83.3936 49.8741 76.937C59.3117 64.3535 73.2156 55.3242 85.4703 45.7379C95.4453 37.9349 103.405 28.2148 113.194 20.2342C118.299 16.0718 123.191 11.622 129.107 8.71781C131.596 7.49623 134.378 6.81675 136.771 5.49321C141.707 2.76269 148.661 1.85932 154.192 2.01734C157.967 2.12518 157.961 5.52997 157.961 8.50842C157.961 10.5723 157.613 11.4844 156.077 12.9475C154.685 14.2726 152.863 15.2313 151.637 16.7165C151.128 17.3335 150.904 18.0981 150.339 18.6848C147.655 21.4722 145.28 25.4756 143.262 28.7773C141.67 31.3821 140.025 33.953 138.446 36.5666C137.743 37.7299 136.222 39.4397 136.122 40.9429C135.979 43.0805 136.411 45.3584 135.912 47.4549C135.569 48.897 135.704 50.7237 134.928 51.9987C133.074 55.0449 130.533 57.5948 128.626 60.5836C126.905 63.2795 126.56 65.3997 125.548 68.1845C125.111 69.3837 124.542 70.2932 123.851 71.3672C122.699 73.1597 124.794 74.8824 124.794 76.8532C124.794 80.2753 121.928 83.1621 120.815 86.2967C119.704 89.4275 118.139 92.2198 117.989 95.5308C117.851 98.5552 116.952 101.448 116.313 104.388C115.438 108.416 113.91 112.337 112.272 116.135C111.3 118.39 110.211 121.461 108.566 123.38C108.03 124.005 107.456 124.813 107.456 125.641" stroke="#124E29" stroke-width="2.89512" stroke-linecap="round"/>
<path d="M34.7142 127.902C32.4448 128.129 29.0798 132.441 27.8462 134.1C24.839 138.144 22.2981 142.535 19.2612 146.538C14.7723 152.455 11.979 159.004 9.6293 166.053C7.08145 173.697 5.73552 181.317 3.80827 189.128C2.46226 194.583 2.67757 199.798 2.67757 205.418C2.67757 218.6 0.561576 233.116 3.80827 246.103C5.79841 254.063 8.83851 261.819 10.6134 269.806C11.0078 271.58 12.8546 272.34 14.0684 273.47C15.8544 275.133 21.4212 280.167 24.1819 276.946C25.8704 274.976 24.3456 272.163 24.161 269.701C24.1087 269.004 23.9403 268.542 23.5956 267.921C22.7801 266.453 23.0302 263.713 23.0302 262.079C23.0302 260.756 18.6977 250.95 21.8995 250.772C24.1004 250.65 24.0564 245.766 24.161 243.988C24.1873 243.541 24.7565 243.238 25.1032 243.046C25.918 242.593 25.9302 241.813 26.1083 240.952C27.4293 234.567 29.9807 227.334 33.5835 221.835C34.7668 220.028 36.7443 219.152 37.8132 217.228C38.5621 215.88 38.9458 213.497 40.1793 212.538C43.6682 209.824 46.6439 208.118 47.9057 203.701C48.4362 201.845 49.8053 200.02 51.0466 198.613C52.0333 197.495 53.0165 195.461 54.69 195.368C56.9515 195.242 56.7186 194.523 58.5009 193.232C59.6565 192.395 60.841 192.035 62.0396 191.389C62.8388 190.959 64.2874 191.003 64.8663 190.28C65.1098 189.975 65.6778 189.979 66.018 189.861C67.1493 189.469 67.8777 188.54 68.8028 187.83C70.9785 186.159 72.3488 184.34 74.1423 182.302C77.3391 178.669 80.7374 175.214 83.8789 171.539C84.9296 170.31 86.086 168.245 87.4804 167.393C90.6793 165.438 93.5108 160.486 93.5108 156.924" stroke="#124E29" stroke-width="2.89512" stroke-linecap="round"/>
</svg>
