<svg width="848" height="215" viewBox="0 0 848 215" fill="none" xmlns="http://www.w3.org/2000/svg">
<rect x="0.760986" width="169.025" height="169.025" rx="6" fill="white"/>
<rect x="226.579" width="169.025" height="169.025" rx="6" fill="white"/>
<rect x="452.396" width="169.025" height="169.025" rx="6" fill="white"/>
<rect x="678.214" width="169.025" height="169.025" rx="6" fill="white"/>
<rect width="9.46541" height="37.8616" transform="matrix(-1 0 0 1 10.2263 66.2578)" fill="#124E29"/>
<rect width="837.013" height="5.4088" transform="matrix(-1 0 0 1 837.013 82)" fill="#124E29"/>
<rect width="9.46541" height="37.8616" transform="matrix(-1 0 0 1 236.044 66.2578)" fill="#124E29"/>
<rect width="9.46541" height="37.8616" transform="matrix(-1 0 0 1 461.862 66.2578)" fill="#124E29"/>
<rect width="9.46541" height="37.8616" transform="matrix(-1 0 0 1 687.679 66.2578)" fill="#124E29"/>
<rect width="9.46541" height="37.8616" transform="matrix(-1 0 0 1 169.786 66.2578)" fill="#124E29"/>
<rect width="9.46541" height="37.8616" transform="matrix(-1 0 0 1 395.604 66.2578)" fill="#124E29"/>
<rect width="9.46541" height="37.8616" transform="matrix(-1 0 0 1 621.421 66.2578)" fill="#124E29"/>
<rect width="9.46541" height="37.8616" transform="matrix(-1 0 0 1 847.239 66.2578)" fill="#124E29"/>
<path d="M56.3477 61.1973V104H49.2871V69.5762L38.8281 73.1211V67.291L55.498 61.1973H56.3477ZM99.502 61.3438V65.2109L82.4512 104H75.0098L92.0312 66.9688H69.9414V61.3438H99.502ZM133.604 61.3438V65.2109L116.553 104H109.111L126.133 66.9688H104.043V61.3438H133.604Z" fill="#124E29"/>
<path d="M298.898 61.1973V104H291.838V69.5762L281.379 73.1211V67.291L298.049 61.1973H298.898ZM342.316 98.375V104H313.723V99.166L327.609 84.0195C329.133 82.3008 330.334 80.8164 331.213 79.5664C332.092 78.3164 332.707 77.1934 333.059 76.1973C333.43 75.1816 333.615 74.1953 333.615 73.2383C333.615 71.8906 333.361 70.709 332.854 69.6934C332.365 68.6582 331.643 67.8477 330.686 67.2617C329.729 66.6562 328.566 66.3535 327.199 66.3535C325.617 66.3535 324.289 66.6953 323.215 67.3789C322.141 68.0625 321.33 69.0098 320.783 70.2207C320.236 71.4121 319.963 72.7793 319.963 74.3223H312.902C312.902 71.8418 313.469 69.5762 314.602 67.5254C315.734 65.4551 317.375 63.8145 319.523 62.6035C321.672 61.373 324.26 60.7578 327.287 60.7578C330.139 60.7578 332.561 61.2363 334.553 62.1934C336.545 63.1504 338.059 64.5078 339.094 66.2656C340.148 68.0234 340.676 70.1035 340.676 72.5059C340.676 73.834 340.461 75.1523 340.031 76.4609C339.602 77.7695 338.986 79.0781 338.186 80.3867C337.404 81.6758 336.477 82.9746 335.402 84.2832C334.328 85.5723 333.146 86.8809 331.857 88.209L322.629 98.375H342.316Z" fill="#124E29"/>
<path d="M514.412 78.4785H518.631C520.271 78.4785 521.629 78.1953 522.703 77.6289C523.797 77.0625 524.607 76.2812 525.135 75.2852C525.662 74.2891 525.926 73.1465 525.926 71.8574C525.926 70.5098 525.682 69.3574 525.193 68.4004C524.725 67.4238 524.002 66.6719 523.025 66.1445C522.068 65.6172 520.848 65.3535 519.363 65.3535C518.113 65.3535 516.98 65.6074 515.965 66.1152C514.969 66.6035 514.178 67.3066 513.592 68.2246C513.006 69.123 512.713 70.1973 512.713 71.4473H505.623C505.623 69.1816 506.219 67.1699 507.41 65.4121C508.602 63.6543 510.223 62.2773 512.273 61.2812C514.344 60.2656 516.668 59.7578 519.246 59.7578C522 59.7578 524.402 60.2168 526.453 61.1348C528.523 62.0332 530.135 63.3809 531.287 65.1777C532.439 66.9746 533.016 69.2012 533.016 71.8574C533.016 73.0684 532.732 74.2988 532.166 75.5488C531.6 76.7988 530.76 77.9414 529.646 78.9766C528.533 79.9922 527.146 80.8223 525.486 81.4668C523.826 82.0918 521.902 82.4043 519.715 82.4043H514.412V78.4785ZM514.412 83.9863V80.1191H519.715C522.215 80.1191 524.344 80.4121 526.102 80.998C527.879 81.584 529.324 82.3945 530.438 83.4297C531.551 84.4453 532.361 85.6074 532.869 86.916C533.396 88.2246 533.66 89.6113 533.66 91.0762C533.66 93.0684 533.299 94.8457 532.576 96.4082C531.873 97.9512 530.867 99.2598 529.559 100.334C528.25 101.408 526.717 102.219 524.959 102.766C523.221 103.312 521.326 103.586 519.275 103.586C517.439 103.586 515.682 103.332 514.002 102.824C512.322 102.316 510.818 101.564 509.49 100.568C508.162 99.5527 507.107 98.293 506.326 96.7891C505.564 95.2656 505.184 93.5078 505.184 91.5156H512.244C512.244 92.7852 512.537 93.9082 513.123 94.8848C513.729 95.8418 514.568 96.5938 515.643 97.1406C516.736 97.6875 517.986 97.9609 519.393 97.9609C520.877 97.9609 522.156 97.6973 523.23 97.1699C524.305 96.6426 525.125 95.8613 525.691 94.8262C526.277 93.791 526.57 92.541 526.57 91.0762C526.57 89.416 526.248 88.0684 525.604 87.0332C524.959 85.998 524.041 85.2363 522.85 84.748C521.658 84.2402 520.252 83.9863 518.631 83.9863H514.412ZM545.906 97.4336H546.492C549.188 97.4336 551.434 97.082 553.23 96.3789C555.047 95.6562 556.492 94.6602 557.566 93.3906C558.641 92.1211 559.412 90.627 559.881 88.9082C560.35 87.1895 560.584 85.3242 560.584 83.3125V75.959C560.584 74.2207 560.398 72.6973 560.027 71.3887C559.676 70.0605 559.168 68.957 558.504 68.0781C557.859 67.1797 557.107 66.5059 556.248 66.0566C555.408 65.6074 554.5 65.3828 553.523 65.3828C552.449 65.3828 551.482 65.627 550.623 66.1152C549.783 66.584 549.07 67.2383 548.484 68.0781C547.918 68.8984 547.479 69.8652 547.166 70.9785C546.873 72.0723 546.727 73.2441 546.727 74.4941C546.727 75.666 546.863 76.7988 547.137 77.8926C547.43 78.9668 547.859 79.9238 548.426 80.7637C548.992 81.6035 549.705 82.2676 550.564 82.7559C551.424 83.2441 552.43 83.4883 553.582 83.4883C554.676 83.4883 555.682 83.2832 556.6 82.873C557.518 82.4434 558.318 81.8672 559.002 81.1445C559.686 80.4219 560.223 79.6113 560.613 78.7129C561.004 77.8145 561.219 76.8965 561.258 75.959L563.953 76.7793C563.953 78.2637 563.641 79.7285 563.016 81.1738C562.41 82.5996 561.561 83.9082 560.467 85.0996C559.393 86.2715 558.133 87.209 556.688 87.9121C555.262 88.6152 553.709 88.9668 552.029 88.9668C549.998 88.9668 548.201 88.5859 546.639 87.8242C545.096 87.043 543.807 85.9883 542.771 84.6602C541.756 83.332 540.994 81.8086 540.486 80.0898C539.979 78.3711 539.725 76.5645 539.725 74.6699C539.725 72.6191 540.037 70.6953 540.662 68.8984C541.287 67.1016 542.195 65.5195 543.387 64.1523C544.578 62.7656 546.023 61.6914 547.723 60.9297C549.441 60.1484 551.385 59.7578 553.553 59.7578C555.857 59.7578 557.879 60.207 559.617 61.1055C561.355 62.0039 562.82 63.2441 564.012 64.8262C565.203 66.4082 566.102 68.2441 566.707 70.334C567.312 72.4238 567.615 74.6699 567.615 77.0723V79.5625C567.615 82.082 567.391 84.5137 566.941 86.8574C566.492 89.1816 565.76 91.3398 564.744 93.332C563.748 95.3047 562.43 97.043 560.789 98.5469C559.168 100.031 557.176 101.193 554.812 102.033C552.469 102.854 549.715 103.264 546.551 103.264H545.906V97.4336Z" fill="#124E29"/>
<path d="M751.898 61.1973V104H744.838V69.5762L734.379 73.1211V67.291L751.049 61.1973H751.898ZM786 61.1973V104H778.939V69.5762L768.48 73.1211V67.291L785.15 61.1973H786Z" fill="#124E29"/>
<path d="M59.5408 201.899H56.3182L56.3377 200.874H59.5408C60.563 200.874 61.4419 200.646 62.1775 200.19C62.9197 199.728 63.4926 199.09 63.8963 198.276C64.2999 197.463 64.5018 196.519 64.5018 195.444V194.116C64.5018 193.296 64.3846 192.554 64.1502 191.89C63.9223 191.226 63.5936 190.659 63.1639 190.19C62.7342 189.715 62.2199 189.351 61.6209 189.097C61.0284 188.843 60.3644 188.716 59.6287 188.716H56.2596V187.681H59.6287C60.5141 187.681 61.3247 187.834 62.0603 188.14C62.8025 188.439 63.4438 188.875 63.9842 189.448C64.5311 190.015 64.951 190.695 65.2439 191.489C65.5434 192.284 65.6932 193.169 65.6932 194.146V195.444C65.6932 196.421 65.5434 197.306 65.2439 198.101C64.951 198.895 64.5311 199.575 63.9842 200.142C63.4373 200.708 62.7895 201.144 62.0408 201.45C61.2921 201.75 60.4588 201.899 59.5408 201.899ZM56.8553 187.681V201.899H55.6541V187.681H56.8553ZM74.9119 200.005V194.556C74.9119 194.054 74.8077 193.621 74.5994 193.257C74.3911 192.892 74.0851 192.612 73.6814 192.417C73.2778 192.222 72.7797 192.124 72.1873 192.124C71.6404 192.124 71.1521 192.222 70.7225 192.417C70.2993 192.606 69.964 192.863 69.7166 193.188C69.4757 193.507 69.3553 193.862 69.3553 194.253L68.1834 194.243C68.1834 193.846 68.2811 193.462 68.4764 193.091C68.6717 192.72 68.9484 192.388 69.3064 192.095C69.6645 191.802 70.0909 191.571 70.5857 191.401C71.087 191.226 71.6372 191.138 72.2361 191.138C72.9913 191.138 73.6554 191.265 74.2283 191.519C74.8077 191.772 75.2602 192.153 75.5857 192.661C75.9113 193.169 76.074 193.807 76.074 194.575V199.683C76.074 200.047 76.1001 200.425 76.1521 200.815C76.2107 201.206 76.2921 201.528 76.3963 201.782V201.899H75.1561C75.0779 201.665 75.0161 201.372 74.9705 201.021C74.9314 200.662 74.9119 200.324 74.9119 200.005ZM75.1853 195.747L75.2049 196.646H72.91C72.311 196.646 71.7739 196.701 71.2986 196.812C70.8299 196.916 70.4327 197.072 70.1072 197.28C69.7817 197.482 69.5311 197.726 69.3553 198.013C69.186 198.299 69.1014 198.625 69.1014 198.989C69.1014 199.367 69.1958 199.712 69.3846 200.024C69.5799 200.337 69.8533 200.588 70.2049 200.776C70.563 200.959 70.9861 201.05 71.4744 201.05C72.1255 201.05 72.6984 200.929 73.1932 200.688C73.6945 200.448 74.1079 200.132 74.4334 199.741C74.7589 199.351 74.977 198.924 75.0877 198.462L75.5955 199.136C75.5109 199.461 75.3546 199.797 75.1268 200.142C74.9054 200.48 74.6157 200.799 74.2576 201.099C73.8995 201.392 73.4764 201.632 72.9881 201.821C72.5063 202.004 71.9594 202.095 71.3475 202.095C70.6574 202.095 70.0551 201.965 69.5408 201.704C69.033 201.444 68.6359 201.089 68.3494 200.64C68.0695 200.184 67.9295 199.67 67.9295 199.097C67.9295 198.576 68.0402 198.11 68.2615 197.7C68.4829 197.284 68.8019 196.932 69.2186 196.646C69.6417 196.353 70.1495 196.131 70.742 195.981C71.3409 195.825 72.0115 195.747 72.7537 195.747H75.1853ZM86.1619 191.333H87.2459V201.714C87.2459 202.632 87.0701 203.42 86.7186 204.077C86.3735 204.735 85.882 205.239 85.2439 205.591C84.6124 205.942 83.867 206.118 83.0076 206.118C82.5714 206.118 82.1222 206.05 81.66 205.913C81.2042 205.783 80.7713 205.581 80.3611 205.308C79.9575 205.041 79.6124 204.709 79.326 204.312L79.9803 203.599C80.41 204.119 80.8689 204.5 81.3572 204.741C81.8455 204.989 82.3728 205.112 82.9393 205.112C83.6098 205.112 84.1762 204.979 84.6385 204.712C85.1072 204.445 85.462 204.061 85.7029 203.56C85.9503 203.058 86.074 202.456 86.074 201.753V193.657L86.1619 191.333ZM78.74 196.724V196.519C78.74 195.698 78.8312 194.959 79.0135 194.302C79.2023 193.638 79.4725 193.071 79.824 192.603C80.1756 192.127 80.602 191.766 81.1033 191.519C81.6111 191.265 82.184 191.138 82.8221 191.138C83.434 191.138 83.9777 191.239 84.4529 191.44C84.9282 191.642 85.3383 191.932 85.6834 192.31C86.0284 192.687 86.3051 193.136 86.5135 193.657C86.7283 194.178 86.8846 194.757 86.9822 195.396V198.003C86.9041 198.602 86.7609 199.152 86.5525 199.653C86.3442 200.148 86.0675 200.581 85.7225 200.952C85.3774 201.317 84.9607 201.6 84.4725 201.802C83.9907 201.997 83.434 202.095 82.8025 202.095C82.171 202.095 81.6046 201.965 81.1033 201.704C80.602 201.444 80.1756 201.076 79.824 200.601C79.4725 200.119 79.2023 199.549 79.0135 198.892C78.8312 198.234 78.74 197.511 78.74 196.724ZM79.9119 196.519V196.724C79.9119 197.342 79.9738 197.915 80.0975 198.442C80.2212 198.97 80.41 199.429 80.6639 199.819C80.9178 200.21 81.24 200.516 81.6307 200.737C82.0213 200.959 82.4803 201.069 83.0076 201.069C83.6782 201.069 84.2413 200.942 84.6971 200.688C85.1528 200.428 85.5141 200.086 85.7811 199.663C86.048 199.233 86.2433 198.765 86.367 198.257V195.22C86.2954 194.875 86.1847 194.523 86.035 194.165C85.8917 193.807 85.6899 193.478 85.4295 193.179C85.1756 192.873 84.8501 192.629 84.4529 192.446C84.0623 192.257 83.587 192.163 83.0271 192.163C82.4933 192.163 82.0278 192.274 81.6307 192.495C81.24 192.716 80.9178 193.026 80.6639 193.423C80.41 193.813 80.2212 194.272 80.0975 194.8C79.9738 195.327 79.9119 195.9 79.9119 196.519ZM94.3846 202.095C93.6945 202.095 93.0597 201.968 92.4803 201.714C91.9074 201.46 91.4061 201.102 90.9764 200.64C90.5532 200.177 90.2244 199.631 89.99 198.999C89.7622 198.361 89.6482 197.664 89.6482 196.909V196.489C89.6482 195.675 89.7687 194.94 90.0096 194.282C90.2505 193.625 90.5825 193.062 91.0057 192.593C91.4288 192.124 91.9106 191.766 92.451 191.519C92.9978 191.265 93.5708 191.138 94.1697 191.138C94.8403 191.138 95.436 191.258 95.9568 191.499C96.4777 191.733 96.9139 192.069 97.2654 192.505C97.6235 192.935 97.8937 193.446 98.076 194.038C98.2583 194.624 98.3494 195.272 98.3494 195.981V196.694H90.3514V195.698H97.1873V195.562C97.1743 194.969 97.0538 194.416 96.826 193.901C96.6046 193.381 96.2726 192.957 95.8299 192.632C95.3872 192.306 94.8338 192.144 94.1697 192.144C93.6749 192.144 93.2192 192.248 92.8025 192.456C92.3924 192.664 92.0376 192.964 91.7381 193.354C91.4451 193.739 91.2172 194.198 91.0545 194.731C90.8982 195.259 90.8201 195.845 90.8201 196.489V196.909C90.8201 197.495 90.9047 198.042 91.074 198.55C91.2498 199.051 91.4972 199.494 91.8162 199.878C92.1417 200.262 92.5258 200.562 92.9686 200.776C93.4113 200.991 93.8995 201.099 94.4334 201.099C95.0584 201.099 95.6118 200.985 96.0936 200.757C96.5753 200.522 97.0083 200.155 97.3924 199.653L98.1248 200.22C97.8969 200.558 97.6105 200.871 97.2654 201.157C96.9269 201.444 96.52 201.672 96.0447 201.841C95.5695 202.01 95.0161 202.095 94.3846 202.095Z" fill="#FFFDF5"/>
<path d="M291.353 187.681V201.899H290.161V187.681H291.353ZM296.226 187.681V188.716H285.298V187.681H296.226ZM299.565 191.333V201.899H298.403V191.333H299.565ZM298.198 188.276C298.198 188.055 298.267 187.869 298.403 187.72C298.547 187.563 298.742 187.485 298.989 187.485C299.237 187.485 299.432 187.563 299.575 187.72C299.725 187.869 299.8 188.055 299.8 188.276C299.8 188.491 299.725 188.677 299.575 188.833C299.432 188.983 299.237 189.058 298.989 189.058C298.742 189.058 298.547 188.983 298.403 188.833C298.267 188.677 298.198 188.491 298.198 188.276ZM303.862 193.521V201.899H302.69V191.333H303.814L303.862 193.521ZM303.648 195.962L303.081 195.669C303.12 195.044 303.237 194.458 303.433 193.911C303.634 193.364 303.914 192.882 304.273 192.466C304.631 192.049 305.06 191.724 305.562 191.489C306.063 191.255 306.633 191.138 307.271 191.138C307.785 191.138 308.25 191.209 308.667 191.353C309.09 191.489 309.448 191.707 309.741 192.007C310.041 192.3 310.272 192.684 310.435 193.159C310.597 193.634 310.679 194.204 310.679 194.868V201.899H309.517V194.907C309.517 194.204 309.406 193.654 309.185 193.257C308.97 192.86 308.667 192.576 308.276 192.407C307.892 192.238 307.446 192.153 306.939 192.153C306.34 192.153 305.832 192.277 305.415 192.524C305.005 192.765 304.67 193.081 304.409 193.472C304.155 193.856 303.967 194.269 303.843 194.712C303.719 195.148 303.654 195.565 303.648 195.962ZM310.669 195.044L309.888 195.063C309.92 194.549 310.037 194.058 310.239 193.589C310.448 193.12 310.731 192.703 311.089 192.339C311.447 191.968 311.873 191.675 312.368 191.46C312.87 191.245 313.433 191.138 314.058 191.138C314.605 191.138 315.093 191.213 315.523 191.362C315.952 191.506 316.314 191.737 316.606 192.056C316.906 192.368 317.134 192.769 317.29 193.257C317.446 193.745 317.524 194.331 317.524 195.015V201.899H316.353V195.005C316.353 194.256 316.242 193.677 316.021 193.267C315.806 192.85 315.506 192.56 315.122 192.397C314.738 192.235 314.289 192.153 313.774 192.153C313.267 192.16 312.821 192.254 312.437 192.437C312.052 192.612 311.73 192.847 311.47 193.14C311.216 193.426 311.021 193.735 310.884 194.067C310.754 194.399 310.682 194.725 310.669 195.044ZM324.575 202.095C323.885 202.095 323.25 201.968 322.671 201.714C322.098 201.46 321.597 201.102 321.167 200.64C320.744 200.177 320.415 199.631 320.181 198.999C319.953 198.361 319.839 197.664 319.839 196.909V196.489C319.839 195.675 319.959 194.94 320.2 194.282C320.441 193.625 320.773 193.062 321.196 192.593C321.62 192.124 322.101 191.766 322.642 191.519C323.189 191.265 323.761 191.138 324.36 191.138C325.031 191.138 325.627 191.258 326.148 191.499C326.668 191.733 327.105 192.069 327.456 192.505C327.814 192.935 328.084 193.446 328.267 194.038C328.449 194.624 328.54 195.272 328.54 195.981V196.694H320.542V195.698H327.378V195.562C327.365 194.969 327.245 194.416 327.017 193.901C326.795 193.381 326.463 192.957 326.021 192.632C325.578 192.306 325.024 192.144 324.36 192.144C323.866 192.144 323.41 192.248 322.993 192.456C322.583 192.664 322.228 192.964 321.929 193.354C321.636 193.739 321.408 194.198 321.245 194.731C321.089 195.259 321.011 195.845 321.011 196.489V196.909C321.011 197.495 321.095 198.042 321.265 198.55C321.44 199.051 321.688 199.494 322.007 199.878C322.332 200.262 322.717 200.562 323.159 200.776C323.602 200.991 324.09 201.099 324.624 201.099C325.249 201.099 325.802 200.985 326.284 200.757C326.766 200.522 327.199 200.155 327.583 199.653L328.315 200.22C328.088 200.558 327.801 200.871 327.456 201.157C327.118 201.444 326.711 201.672 326.235 201.841C325.76 202.01 325.207 202.095 324.575 202.095ZM332.007 193.081V201.899H330.845V191.333H331.978L332.007 193.081ZM335.747 191.255L335.718 192.329C335.588 192.31 335.461 192.293 335.337 192.28C335.213 192.267 335.08 192.261 334.937 192.261C334.429 192.261 333.983 192.355 333.599 192.544C333.221 192.726 332.902 192.983 332.642 193.315C332.381 193.641 332.183 194.025 332.046 194.468C331.909 194.904 331.831 195.373 331.812 195.874L331.382 196.04C331.382 195.35 331.453 194.709 331.597 194.116C331.74 193.524 331.958 193.006 332.251 192.563C332.551 192.114 332.925 191.766 333.374 191.519C333.83 191.265 334.364 191.138 334.976 191.138C335.125 191.138 335.272 191.151 335.415 191.177C335.565 191.196 335.676 191.222 335.747 191.255Z" fill="#FFFDF5"/>
<path d="M501.526 187.681H502.737L507.991 200.2L513.254 187.681H514.455L508.45 201.899H507.532L501.526 187.681ZM501.155 187.681H502.219L502.346 195.688V201.899H501.155V187.681ZM513.782 187.681H514.846V201.899H513.645V195.688L513.782 187.681ZM519.485 191.333V201.899H518.323V191.333H519.485ZM518.117 188.276C518.117 188.055 518.186 187.869 518.323 187.72C518.466 187.563 518.661 187.485 518.908 187.485C519.156 187.485 519.351 187.563 519.494 187.72C519.644 187.869 519.719 188.055 519.719 188.276C519.719 188.491 519.644 188.677 519.494 188.833C519.351 188.983 519.156 189.058 518.908 189.058C518.661 189.058 518.466 188.983 518.323 188.833C518.186 188.677 518.117 188.491 518.117 188.276ZM523.84 193.589V201.899H522.678V191.333H523.791L523.84 193.589ZM523.576 195.962L523.059 195.669C523.098 195.044 523.225 194.458 523.44 193.911C523.655 193.364 523.944 192.882 524.309 192.466C524.68 192.049 525.113 191.724 525.608 191.489C526.109 191.255 526.662 191.138 527.268 191.138C527.795 191.138 528.267 191.209 528.684 191.353C529.101 191.496 529.455 191.724 529.748 192.036C530.041 192.349 530.263 192.749 530.412 193.237C530.569 193.726 530.647 194.321 530.647 195.024V201.899H529.475V195.015C529.475 194.285 529.374 193.716 529.172 193.306C528.97 192.889 528.684 192.593 528.313 192.417C527.942 192.241 527.502 192.153 526.994 192.153C526.435 192.153 525.943 192.277 525.52 192.524C525.103 192.765 524.752 193.081 524.465 193.472C524.185 193.856 523.97 194.269 523.821 194.712C523.671 195.148 523.589 195.565 523.576 195.962ZM540.442 199.458V191.333H541.614V201.899H540.491L540.442 199.458ZM540.657 197.505L541.262 197.485C541.262 198.149 541.184 198.761 541.028 199.321C540.871 199.881 540.627 200.369 540.295 200.786C539.963 201.203 539.533 201.525 539.006 201.753C538.479 201.981 537.844 202.095 537.102 202.095C536.588 202.095 536.116 202.023 535.686 201.88C535.263 201.73 534.898 201.496 534.592 201.177C534.286 200.858 534.048 200.444 533.879 199.937C533.716 199.429 533.635 198.813 533.635 198.091V191.333H534.797V198.11C534.797 198.677 534.859 199.149 534.983 199.526C535.113 199.904 535.289 200.207 535.51 200.435C535.738 200.662 535.998 200.825 536.291 200.923C536.584 201.021 536.9 201.069 537.239 201.069C538.098 201.069 538.775 200.903 539.27 200.571C539.771 200.239 540.126 199.803 540.334 199.263C540.549 198.716 540.657 198.13 540.657 197.505ZM548.664 191.333V192.29H543.371V191.333H548.664ZM545.315 188.618H546.477V199.331C546.477 199.819 546.542 200.187 546.672 200.435C546.802 200.682 546.972 200.848 547.18 200.933C547.388 201.017 547.613 201.06 547.854 201.06C548.03 201.06 548.199 201.05 548.362 201.03C548.524 201.004 548.671 200.978 548.801 200.952L548.85 201.938C548.707 201.984 548.521 202.02 548.293 202.046C548.065 202.078 547.838 202.095 547.61 202.095C547.16 202.095 546.763 202.013 546.418 201.851C546.073 201.681 545.803 201.395 545.608 200.991C545.412 200.581 545.315 200.024 545.315 199.321V188.618ZM555.11 191.333V192.29H549.817V191.333H555.11ZM551.76 188.618H552.922V199.331C552.922 199.819 552.987 200.187 553.117 200.435C553.248 200.682 553.417 200.848 553.625 200.933C553.834 201.017 554.058 201.06 554.299 201.06C554.475 201.06 554.644 201.05 554.807 201.03C554.97 201.004 555.116 200.978 555.246 200.952L555.295 201.938C555.152 201.984 554.966 202.02 554.739 202.046C554.511 202.078 554.283 202.095 554.055 202.095C553.606 202.095 553.209 202.013 552.864 201.851C552.519 201.681 552.248 201.395 552.053 200.991C551.858 200.581 551.76 200.024 551.76 199.321V188.618ZM561.643 202.095C560.953 202.095 560.318 201.968 559.739 201.714C559.166 201.46 558.664 201.102 558.235 200.64C557.811 200.177 557.483 199.631 557.248 198.999C557.02 198.361 556.907 197.664 556.907 196.909V196.489C556.907 195.675 557.027 194.94 557.268 194.282C557.509 193.625 557.841 193.062 558.264 192.593C558.687 192.124 559.169 191.766 559.709 191.519C560.256 191.265 560.829 191.138 561.428 191.138C562.099 191.138 562.694 191.258 563.215 191.499C563.736 191.733 564.172 192.069 564.524 192.505C564.882 192.935 565.152 193.446 565.334 194.038C565.517 194.624 565.608 195.272 565.608 195.981V196.694H557.61V195.698H564.446V195.562C564.433 194.969 564.312 194.416 564.084 193.901C563.863 193.381 563.531 192.957 563.088 192.632C562.645 192.306 562.092 192.144 561.428 192.144C560.933 192.144 560.478 192.248 560.061 192.456C559.651 192.664 559.296 192.964 558.996 193.354C558.703 193.739 558.476 194.198 558.313 194.731C558.157 195.259 558.078 195.845 558.078 196.489V196.909C558.078 197.495 558.163 198.042 558.332 198.55C558.508 199.051 558.755 199.494 559.075 199.878C559.4 200.262 559.784 200.562 560.227 200.776C560.67 200.991 561.158 201.099 561.692 201.099C562.317 201.099 562.87 200.985 563.352 200.757C563.834 200.522 564.267 200.155 564.651 199.653L565.383 200.22C565.155 200.558 564.869 200.871 564.524 201.157C564.185 201.444 563.778 201.672 563.303 201.841C562.828 202.01 562.274 202.095 561.643 202.095ZM569.075 193.081V201.899H567.912V191.333H569.045L569.075 193.081ZM572.815 191.255L572.785 192.329C572.655 192.31 572.528 192.293 572.405 192.28C572.281 192.267 572.147 192.261 572.004 192.261C571.496 192.261 571.05 192.355 570.666 192.544C570.289 192.726 569.97 192.983 569.709 193.315C569.449 193.641 569.25 194.025 569.114 194.468C568.977 194.904 568.899 195.373 568.879 195.874L568.45 196.04C568.45 195.35 568.521 194.709 568.664 194.116C568.808 193.524 569.026 193.006 569.319 192.563C569.618 192.114 569.992 191.766 570.442 191.519C570.897 191.265 571.431 191.138 572.043 191.138C572.193 191.138 572.339 191.151 572.483 191.177C572.632 191.196 572.743 191.222 572.815 191.255Z" fill="#FFFDF5"/>
<path d="M730.8 198.403C730.8 198.013 730.735 197.664 730.605 197.358C730.475 197.052 730.26 196.779 729.96 196.538C729.668 196.291 729.27 196.063 728.769 195.854C728.274 195.64 727.656 195.428 726.914 195.22C726.204 195.018 725.563 194.797 724.99 194.556C724.417 194.315 723.925 194.038 723.515 193.726C723.112 193.413 722.802 193.049 722.587 192.632C722.373 192.209 722.265 191.717 722.265 191.157C722.265 190.61 722.382 190.112 722.617 189.663C722.851 189.214 723.18 188.826 723.603 188.501C724.033 188.175 724.537 187.925 725.117 187.749C725.703 187.573 726.344 187.485 727.041 187.485C728.037 187.485 728.896 187.674 729.619 188.052C730.348 188.429 730.911 188.94 731.308 189.585C731.712 190.223 731.914 190.939 731.914 191.733H730.712C730.712 191.115 730.566 190.565 730.273 190.083C729.987 189.595 729.57 189.214 729.023 188.94C728.483 188.66 727.822 188.521 727.041 188.521C726.259 188.521 725.602 188.641 725.068 188.882C724.541 189.116 724.14 189.432 723.867 189.829C723.6 190.22 723.466 190.656 723.466 191.138C723.466 191.476 723.531 191.789 723.662 192.075C723.792 192.355 724.003 192.619 724.296 192.866C724.596 193.107 724.99 193.335 725.478 193.55C725.966 193.758 726.569 193.957 727.285 194.146C728.04 194.354 728.71 194.585 729.296 194.839C729.882 195.093 730.377 195.386 730.781 195.718C731.184 196.043 731.49 196.424 731.699 196.86C731.907 197.297 732.011 197.804 732.011 198.384C732.011 198.963 731.888 199.484 731.64 199.946C731.399 200.402 731.058 200.789 730.615 201.108C730.179 201.427 729.661 201.672 729.062 201.841C728.47 202.01 727.822 202.095 727.119 202.095C726.487 202.095 725.859 202.013 725.234 201.851C724.609 201.688 724.036 201.437 723.515 201.099C723.001 200.754 722.587 200.311 722.275 199.771C721.969 199.23 721.816 198.586 721.816 197.837H723.007C723.007 198.436 723.128 198.94 723.369 199.351C723.61 199.761 723.929 200.093 724.326 200.347C724.729 200.601 725.172 200.786 725.654 200.903C726.142 201.014 726.63 201.069 727.119 201.069C727.867 201.069 728.515 200.959 729.062 200.737C729.615 200.516 730.042 200.207 730.341 199.81C730.647 199.406 730.8 198.937 730.8 198.403ZM738.418 202.095C737.727 202.095 737.093 201.968 736.513 201.714C735.94 201.46 735.439 201.102 735.009 200.64C734.586 200.177 734.257 199.631 734.023 198.999C733.795 198.361 733.681 197.664 733.681 196.909V196.489C733.681 195.675 733.802 194.94 734.043 194.282C734.283 193.625 734.615 193.062 735.039 192.593C735.462 192.124 735.944 191.766 736.484 191.519C737.031 191.265 737.604 191.138 738.203 191.138C738.873 191.138 739.469 191.258 739.99 191.499C740.511 191.733 740.947 192.069 741.298 192.505C741.656 192.935 741.927 193.446 742.109 194.038C742.291 194.624 742.382 195.272 742.382 195.981V196.694H734.384V195.698H741.22V195.562C741.207 194.969 741.087 194.416 740.859 193.901C740.638 193.381 740.306 192.957 739.863 192.632C739.42 192.306 738.867 192.144 738.203 192.144C737.708 192.144 737.252 192.248 736.835 192.456C736.425 192.664 736.071 192.964 735.771 193.354C735.478 193.739 735.25 194.198 735.087 194.731C734.931 195.259 734.853 195.845 734.853 196.489V196.909C734.853 197.495 734.938 198.042 735.107 198.55C735.283 199.051 735.53 199.494 735.849 199.878C736.175 200.262 736.559 200.562 737.002 200.776C737.444 200.991 737.933 201.099 738.466 201.099C739.091 201.099 739.645 200.985 740.127 200.757C740.608 200.522 741.041 200.155 741.425 199.653L742.158 200.22C741.93 200.558 741.643 200.871 741.298 201.157C740.96 201.444 740.553 201.672 740.078 201.841C739.602 202.01 739.049 202.095 738.418 202.095ZM745.849 186.899V201.899H744.687V186.899H745.849ZM752.48 191.333L747.539 196.235L745.439 198.267L745.263 197.124L746.953 195.298L751.005 191.333H752.48ZM751.464 201.899L747.05 196.411L747.695 195.405L752.871 201.899H751.464ZM761.259 199.458V191.333H762.431V201.899H761.308L761.259 199.458ZM761.474 197.505L762.08 197.485C762.08 198.149 762.002 198.761 761.845 199.321C761.689 199.881 761.445 200.369 761.113 200.786C760.781 201.203 760.351 201.525 759.824 201.753C759.296 201.981 758.662 202.095 757.919 202.095C757.405 202.095 756.933 202.023 756.503 201.88C756.08 201.73 755.716 201.496 755.41 201.177C755.104 200.858 754.866 200.444 754.697 199.937C754.534 199.429 754.453 198.813 754.453 198.091V191.333H755.615V198.11C755.615 198.677 755.677 199.149 755.8 199.526C755.931 199.904 756.106 200.207 756.328 200.435C756.556 200.662 756.816 200.825 757.109 200.923C757.402 201.021 757.718 201.069 758.056 201.069C758.916 201.069 759.593 200.903 760.087 200.571C760.589 200.239 760.944 199.803 761.152 199.263C761.367 198.716 761.474 198.13 761.474 197.505ZM766.65 193.589V201.899H765.488V191.333H766.601L766.65 193.589ZM766.386 195.962L765.869 195.669C765.908 195.044 766.035 194.458 766.25 193.911C766.464 193.364 766.754 192.882 767.119 192.466C767.49 192.049 767.923 191.724 768.418 191.489C768.919 191.255 769.472 191.138 770.078 191.138C770.605 191.138 771.077 191.209 771.494 191.353C771.91 191.496 772.265 191.724 772.558 192.036C772.851 192.349 773.072 192.749 773.222 193.237C773.378 193.726 773.457 194.321 773.457 195.024V201.899H772.285V195.015C772.285 194.285 772.184 193.716 771.982 193.306C771.78 192.889 771.494 192.593 771.123 192.417C770.752 192.241 770.312 192.153 769.804 192.153C769.244 192.153 768.753 192.277 768.33 192.524C767.913 192.765 767.561 193.081 767.275 193.472C766.995 193.856 766.78 194.269 766.63 194.712C766.481 195.148 766.399 195.565 766.386 195.962ZM783.349 199.849V186.899H784.521V201.899H783.427L783.349 199.849ZM776.015 196.724V196.519C776.015 195.698 776.11 194.959 776.298 194.302C776.487 193.638 776.757 193.071 777.109 192.603C777.467 192.127 777.897 191.766 778.398 191.519C778.899 191.265 779.466 191.138 780.097 191.138C780.716 191.138 781.263 191.239 781.738 191.44C782.213 191.642 782.62 191.932 782.959 192.31C783.304 192.687 783.58 193.136 783.789 193.657C784.003 194.178 784.16 194.757 784.257 195.396V198.003C784.179 198.602 784.036 199.152 783.828 199.653C783.619 200.148 783.343 200.581 782.998 200.952C782.653 201.317 782.236 201.6 781.748 201.802C781.266 201.997 780.709 202.095 780.078 202.095C779.453 202.095 778.89 201.965 778.388 201.704C777.887 201.444 777.46 201.076 777.109 200.601C776.757 200.119 776.487 199.549 776.298 198.892C776.11 198.234 776.015 197.511 776.015 196.724ZM777.187 196.519V196.724C777.187 197.342 777.249 197.915 777.373 198.442C777.496 198.97 777.685 199.429 777.939 199.819C778.193 200.21 778.515 200.516 778.906 200.737C779.296 200.959 779.759 201.069 780.293 201.069C780.963 201.069 781.526 200.942 781.982 200.688C782.438 200.428 782.802 200.086 783.076 199.663C783.349 199.233 783.548 198.765 783.671 198.257V195.22C783.593 194.875 783.479 194.523 783.33 194.165C783.18 193.807 782.975 193.478 782.714 193.179C782.46 192.873 782.135 192.629 781.738 192.446C781.347 192.257 780.872 192.163 780.312 192.163C779.772 192.163 779.306 192.274 778.916 192.495C778.525 192.716 778.199 193.026 777.939 193.423C777.685 193.813 777.496 194.272 777.373 194.8C777.249 195.327 777.187 195.9 777.187 196.519ZM791.679 202.095C790.989 202.095 790.354 201.968 789.775 201.714C789.202 201.46 788.701 201.102 788.271 200.64C787.848 200.177 787.519 199.631 787.285 198.999C787.057 198.361 786.943 197.664 786.943 196.909V196.489C786.943 195.675 787.063 194.94 787.304 194.282C787.545 193.625 787.877 193.062 788.3 192.593C788.724 192.124 789.205 191.766 789.746 191.519C790.293 191.265 790.865 191.138 791.464 191.138C792.135 191.138 792.731 191.258 793.252 191.499C793.772 191.733 794.209 192.069 794.56 192.505C794.918 192.935 795.188 193.446 795.371 194.038C795.553 194.624 795.644 195.272 795.644 195.981V196.694H787.646V195.698H794.482V195.562C794.469 194.969 794.349 194.416 794.121 193.901C793.899 193.381 793.567 192.957 793.125 192.632C792.682 192.306 792.128 192.144 791.464 192.144C790.97 192.144 790.514 192.248 790.097 192.456C789.687 192.664 789.332 192.964 789.033 193.354C788.74 193.739 788.512 194.198 788.349 194.731C788.193 195.259 788.115 195.845 788.115 196.489V196.909C788.115 197.495 788.199 198.042 788.369 198.55C788.544 199.051 788.792 199.494 789.111 199.878C789.436 200.262 789.821 200.562 790.263 200.776C790.706 200.991 791.194 201.099 791.728 201.099C792.353 201.099 792.906 200.985 793.388 200.757C793.87 200.522 794.303 200.155 794.687 199.653L795.419 200.22C795.192 200.558 794.905 200.871 794.56 201.157C794.222 201.444 793.815 201.672 793.339 201.841C792.864 202.01 792.311 202.095 791.679 202.095ZM799.111 193.081V201.899H797.949V191.333H799.082L799.111 193.081ZM802.851 191.255L802.822 192.329C802.692 192.31 802.565 192.293 802.441 192.28C802.317 192.267 802.184 192.261 802.041 192.261C801.533 192.261 801.087 192.355 800.703 192.544C800.325 192.726 800.006 192.983 799.746 193.315C799.485 193.641 799.287 194.025 799.15 194.468C799.013 194.904 798.935 195.373 798.916 195.874L798.486 196.04C798.486 195.35 798.558 194.709 798.701 194.116C798.844 193.524 799.062 193.006 799.355 192.563C799.655 192.114 800.029 191.766 800.478 191.519C800.934 191.265 801.468 191.138 802.08 191.138C802.229 191.138 802.376 191.151 802.519 191.177C802.669 191.196 802.78 191.222 802.851 191.255Z" fill="#FFFDF5"/>
<circle cx="198" cy="66" r="3" fill="white"/>
<circle cx="198" cy="100" r="3" fill="white"/>
<circle cx="427" cy="67" r="3" fill="white"/>
<circle cx="427" cy="101" r="3" fill="white"/>
<circle cx="653" cy="71" r="3" fill="white"/>
<circle cx="653" cy="105" r="3" fill="white"/>
</svg>
