<svg width="328" height="447" viewBox="0 0 328 447" fill="none" xmlns="http://www.w3.org/2000/svg">
<path d="M233.873 388.357C236.936 388.357 241.428 389.16 244.47 388.224C247.849 387.185 250.579 384.787 253.874 383.588C260.919 381.027 267.12 378.31 274.935 378.224C282.086 378.145 289.242 378.224 296.394 378.224C303.401 378.224 310.217 384.462 316.362 386.867C320.235 388.383 322.292 391.278 323.746 394.914C325.221 398.599 326.985 406.675 325.336 410.444C324.065 413.35 323.261 417.406 319.839 418.028C315.036 418.901 309.669 418.16 304.772 418.16C300.026 418.16 295.598 417.813 290.897 417.101C278.233 415.182 265.902 411.916 253.146 410.444C247.37 409.778 241.915 409.219 236.125 409.219C233.398 409.219 230.672 409.219 227.946 409.219C224.903 409.219 224.428 410.256 223.442 412.994C220.664 420.711 212.302 425.27 207.646 431.737C205.153 435.2 198.527 437.14 194.897 439.023C190.095 441.512 184.129 443.723 178.638 443.791C174.172 443.846 169.857 444.883 165.458 444.983C161.88 445.064 158.24 445.115 154.795 444.023C151.421 442.953 148.134 440.389 144.596 440.215C138.536 439.917 131.687 435.088 126.846 431.539C123.365 428.985 119.725 426.774 116.183 424.32C110.978 420.712 105.535 417.165 100.818 412.928C99.7529 411.971 98.5261 411.255 98.1027 409.815C97.4951 407.75 97.3805 404.523 95.8509 402.994C94.9677 402.11 91.9916 402.663 90.9499 402.663C85.9385 402.663 80.8482 402.928 75.8496 402.53C70.9763 402.142 65.7793 400.319 61.2791 398.457C54.2681 395.556 48.6543 391.704 41.0128 390.741C33.331 389.773 23.6955 389.87 16.9053 385.344C14.6942 383.869 12.352 383.453 10.0175 382.264C6.91701 380.684 2.10598 376.277 2.00369 372.594C1.80133 365.31 9.97026 358.808 16.6073 356.765C20.7111 355.503 24.6606 353.828 28.8266 352.725C33.9445 351.371 39.3294 351.401 44.6224 351.401C52.406 351.401 60.6146 354.302 66.3787 359.746C69.7772 362.956 73.9072 364.99 77.2073 368.455C78.8593 370.19 81.9705 375.244 84.8568 375.244" stroke="#FFFDF5" stroke-width="2.64908" stroke-linecap="round"/>
<path d="M85.4529 374.052C85.2164 371.923 83.7363 368.941 83.0686 366.899C81.9594 363.506 79.4503 360.593 77.108 357.958C76.0737 356.794 75.9159 354.106 75.9159 352.593C75.9159 348.766 74.2855 344.395 73.3991 340.672C71.0532 330.819 70.5513 320.431 70.5513 310.273C70.5513 299.786 71.0115 290.288 73.068 280.006C74.991 270.391 77.7476 260.485 81.4129 251.395C82.7661 248.039 84.8947 244.566 85.9165 241.129C88.3834 232.831 91.5444 224.785 96.1821 217.419C97.4702 215.373 98.9582 213.708 99.8909 211.392C102.858 204.026 108.002 197.882 112.143 191.192C113.655 188.751 114.932 186.182 116.448 183.774C117.434 182.209 117.99 180.204 118.833 178.542C121.141 173.988 125.629 168.615 125.985 163.442C126.528 155.571 126.524 148.088 128.502 140.394C129.506 136.491 129.686 131.772 130.025 127.744C130.703 119.695 130.219 111.742 131.814 103.769C132.53 100.189 132.082 95.646 131.946 91.9803C131.47 79.1389 128.455 65.7731 130.621 52.7724C131.951 44.7975 132.542 36.2625 132.542 28.2013C132.542 26.1358 133.714 24.812 135.655 26.678C139.58 30.452 144.15 33.5657 148.172 37.2747C157.446 45.8257 161.189 58.6198 166.385 69.661C170.087 77.5277 174.059 84.275 176.518 92.5764C177.44 95.6859 179.631 99.8297 179.631 102.842" stroke="#FFFDF5" stroke-width="2.64908" stroke-linecap="round"/>
<path d="M180.227 104.034C180.227 91.6651 190.371 80.9221 197.049 71.2503C204.742 60.1099 204.202 47.0699 210.328 35.2877C215.658 25.0393 220.013 11.0897 230.959 5.61689C233.431 4.38081 237.641 2.84959 240.43 2.70279C241.276 2.65824 243.07 1.5163 243.874 2.23919C245.281 3.50578 246.169 6.28926 246.423 8.06738C246.953 11.7741 248.788 15.9928 249.669 19.6907C251.765 28.4951 252.174 40.147 250.43 48.8647C249.955 51.243 249.949 53.9058 249.238 56.2162C248.304 59.2508 251.318 58.288 254.007 58.9978C261.916 61.086 267.038 65.6715 272.65 71.2834C280.711 79.3437 284.159 88.7686 288.247 99.3978C289.17 101.796 290.302 104.104 291.228 106.418C291.892 108.079 292.52 111.048 292.022 112.776C291.237 115.504 288.146 116.457 285.731 117.445C282.092 118.934 274.772 122.038 271.094 119.134C266.195 115.266 262.31 110.401 257.682 106.352C249.389 99.0952 237.959 99.1714 228.641 104.762C225.521 106.634 222.555 108.824 219.435 110.723C215.456 113.145 217.122 116.047 215.726 120.194C213.064 128.098 208.611 135.247 205.825 143.142C204.92 145.707 203.279 148.183 202.878 150.891C202.387 154.2 201.994 157.616 201.387 160.892C199.528 170.935 197.042 183.052 201.685 192.583C204.201 197.746 204.943 204.128 206.454 209.67C209.619 221.274 215.607 231.557 219.269 242.95C222.685 253.576 225.241 264.591 228.475 275.303C230.55 282.175 232.085 288.761 232.085 295.967C232.085 300.858 232.922 306.323 233.873 311.133C237.114 327.528 239.238 344.28 239.238 361.004C239.238 366.076 239.978 372.012 238.939 376.999C238.197 380.565 236.328 383.944 235.694 387.43C235.55 388.225 235.124 389.222 234.469 389.549" stroke="#FFFDF5" stroke-width="2.64908" stroke-linecap="round"/>
<path d="M94.3935 371.071C94.3935 368.498 93.7975 366.231 93.7975 363.62C93.7975 361.625 97.2874 353.175 98.6985 355.573C100.462 358.572 104.266 365.982 101.414 369.15C98.1964 372.725 92.0093 370.689 92.0093 365.905C92.0093 363.781 94.8981 350.283 97.6719 355.275C98.7971 357.301 98.2043 360.238 98.6985 362.461C98.9369 363.534 100.048 368.251 98.566 368.687C97.6943 368.943 96.5024 367.918 96.1817 367.197C95.8384 366.424 96.0638 359.558 97.2414 360.474C99.1869 361.988 95.2547 366.899 99.4601 366.899C103.299 366.899 100.151 360.342 97.2414 360.342C96.4752 360.342 93.8534 359.875 93.7975 360.938C93.7008 362.775 93.6259 364.816 94.0955 366.601C94.5261 368.237 94.7862 368.687 96.4798 368.687C98.2641 368.687 98.2701 365.256 98.4335 364.051C98.8922 360.668 98.352 360.509 95.1221 359.481C92.6949 358.709 96.114 358.622 96.7778 357.958" stroke="#FFFDF5" stroke-width="2.64908" stroke-linecap="round"/>
<path d="M217.779 375.244C217.779 370.376 213.867 365.972 215.527 360.806C216.595 357.484 218.619 352.869 223.144 354.514C224.996 355.187 225.765 356.908 226.588 358.554C228.527 362.432 228.508 366.756 228.508 371.071C228.508 373.5 228.873 374.091 226.72 375.111C224.502 376.162 221.546 377.126 219.104 377.032C217.794 376.981 215.395 373.05 215.395 371.667C215.395 368.559 214.844 365.385 216.918 362.792C218.344 361.009 218.803 371.358 219.435 372.859C221.72 378.287 222.598 368.047 222.548 366.038C222.53 365.353 222.337 361.176 221.62 360.971C219.771 360.443 219.589 365.425 219.567 366.435C219.472 370.799 222.275 370.105 221.952 365.707C221.839 364.178 220.755 362.796 219.037 363.256C217.472 363.675 217.779 365.937 217.779 367.131C217.779 368.464 217.462 369.283 218.971 369.283C220.42 369.283 220.199 368.718 221.057 367.859C221.186 367.73 221.373 372.136 221.488 372.727C221.88 374.735 221.952 367.968 221.952 366.998C221.952 365.773 221.952 364.548 221.952 363.322C221.952 362.517 220.74 357.646 219.104 359.282C218.791 359.595 218.816 362.064 219.269 362.064C220.123 362.064 219.317 360.425 218.971 360.21C216.317 358.551 221.284 356.17 222.548 356.17C223.657 356.17 223.144 360.764 223.144 361.667C223.144 361.986 222.904 364.448 223.442 364.448C224.141 364.448 221.631 357.856 221.355 357.031C220.733 355.163 224.227 360.164 224.336 362.13C224.505 365.18 225.528 368.118 225.528 371.336C225.528 375.211 226.72 367.4 226.72 365.707C226.72 363.945 225.885 362.239 225.395 360.673C224.313 357.209 225.429 361.702 225.495 362.693C225.632 364.749 226.124 366.764 226.124 368.819C226.124 371.035 226.513 374.16 223.872 375.111C222.863 375.474 218.857 376.122 218.508 375.111C217.855 373.226 218.481 370.966 219.832 369.614C220.781 368.665 222.017 366.602 222.945 365.971C225.366 364.325 223.787 371.464 223.74 372.263C223.533 375.774 219.067 366.937 218.971 365.111C218.877 363.313 217.935 361.847 217.183 360.342" stroke="#FFFDF5" stroke-width="2.64908" stroke-linecap="round"/>
<path d="M226.124 358.554C225.12 358.554 224.607 358.391 223.74 357.958" stroke="#FFFDF5" stroke-width="2.64908" stroke-linecap="round"/>
<path d="M211.222 378.224C211.106 377.055 210.249 374.39 209.732 373.356C208.96 371.811 209.434 369.247 209.434 367.495C209.434 364.343 208.812 360.805 210.924 358.223C212.882 355.83 217.408 352.131 220.892 351.997C223.024 351.915 225.018 350.767 227.018 352.03C228.534 352.987 229.456 354.837 230.595 356.203C233.547 359.745 233.873 365.149 233.873 369.581C233.873 372.958 234.529 378.326 230.893 380.145C226.685 382.248 211.222 386.367 211.222 377.628" stroke="#FFFDF5" stroke-width="2.64908" stroke-linecap="round"/>
<path d="M107.507 357.958C107.507 356.014 106.211 354.545 105.123 353.057C104.029 351.559 100.49 347.431 98.5665 347.229C96.4594 347.007 90.8176 344.504 90.8176 349.315C90.8176 352.333 87.3489 354.642 86.6783 357.66C85.5694 362.65 86.061 367.894 86.6452 372.86C87.0843 376.592 92.8137 380.012 96.1822 380.012C101.68 380.012 104.024 379.184 107.11 373.853C108.423 371.586 108.104 367.078 108.104 364.448C108.104 361.727 109.113 357.568 106.315 356.17" stroke="#FFFDF5" stroke-width="2.64908" stroke-linecap="round"/>
<path d="M148.636 402.067C153.481 402.067 158.257 402.416 162.941 402.663C168.349 402.947 173.108 407.785 177.247 410.544C180.798 412.911 182.203 420.178 180.823 424.121C180.07 426.272 172.27 427.459 170.094 428.426C167.59 429.539 163.739 428.933 161.021 428.89C156.995 428.825 151.051 428.025 149.099 424.121C148.208 422.338 148.151 419.626 146.848 418.16C144.986 416.066 142.084 403.539 146.848 403.259C150.53 403.042 152.52 405.905 156.318 407.034C160.589 408.303 167.503 407.557 171.154 410.544C172.723 411.828 165.847 410.349 165.822 410.345C161.335 409.655 156.847 408.979 152.345 408.392C146.224 407.593 159.692 412.362 160.491 412.663C169.285 415.982 160.69 412.612 160.69 414.286C160.69 414.807 169.683 417.609 170.757 418.16C171.646 418.617 164.619 417.095 163.306 416.736C161.878 416.347 162.171 416.452 161.981 416.736C161.665 417.211 156.587 418.548 156.65 418.624C157.088 419.16 159.795 419.209 160.425 419.352C162.426 419.808 164.543 420.41 166.352 421.406C167.841 422.224 165.741 421.989 165.326 421.902C162.192 421.246 159.322 419.966 156.385 418.756" stroke="#FFFDF5" stroke-width="2.64908" stroke-linecap="round"/>
<path d="M154.88 416.937C154.622 416.885 154.625 416.643 154.588 416.434C154.452 415.661 154.189 414.506 153.722 413.861C153.076 412.97 152.643 411.966 152.071 411.02C151.582 410.214 151.048 409.359 150.317 408.744C150.043 408.513 149.719 408.363 149.436 408.149C149.032 407.844 148.7 405.942 148.185 406.457C148.071 406.571 147.996 406.445 147.887 406.457C147.87 406.459 147.805 407.082 147.795 407.134C147.409 409.064 147.818 411.095 148.144 413.01C148.454 414.837 148.84 416.612 149.338 418.398C149.896 420.398 150.608 422.282 152.214 423.674C153.093 424.435 153.93 425.127 154.921 425.724C156.645 426.764 158.825 426.996 160.792 426.996C163.527 426.996 166.247 426.72 168.928 426.165C169.555 426.036 170.092 425.877 170.676 425.658C171.994 425.164 173.187 424.544 174.465 423.94C175.353 423.521 176.264 423.113 177.111 422.612C177.316 422.491 177.5 422.305 177.629 422.105C177.947 421.61 177.715 420.758 177.47 420.259C176.924 419.149 176.287 418.073 175.727 416.968C174.976 415.487 174.262 413.919 172.937 412.866C170.039 410.561 166.958 408.503 163.77 406.621C162.499 405.871 160.927 405.49 159.495 405.206C158.619 405.033 157.736 405.104 156.859 404.986C155.738 404.834 154.609 404.913 153.506 404.663C152.966 404.54 152.413 404.614 151.871 404.514C151.089 404.371 150.382 403.962 149.635 403.704C149.083 403.513 148.559 403.371 147.979 403.371C147.697 403.371 147.417 403.379 147.164 403.515C146.975 403.617 146.776 403.631 146.621 403.786C146.38 404.027 146.482 403.506 146.482 403.345C146.482 402.939 146.544 403.026 146.852 402.889C147.015 402.817 147.136 402.817 147.318 402.817C148.133 402.817 148.948 402.817 149.764 402.817C151.972 402.817 154.141 402.948 156.336 403.186C158.114 403.379 159.811 403.814 161.545 404.243C162.756 404.542 163.986 404.757 165.186 405.104C166.049 405.353 166.87 405.683 167.687 406.057C168.775 406.556 170.025 407.027 170.979 407.77C172.151 408.683 172.994 409.942 173.794 411.169C174.113 411.66 174.368 412.187 174.742 412.64C175.141 413.124 175.593 413.554 175.983 414.045C176.574 414.791 177.146 415.505 177.593 416.352C177.984 417.095 178.653 418.229 178.372 419.131C178.234 419.573 177.663 419.742 177.28 419.895C175.956 420.425 174.523 420.778 173.158 421.187C171.834 421.584 170.493 421.883 169.133 422.125C167.497 422.417 165.923 422.891 164.304 423.253C163.02 423.54 161.727 423.709 160.412 423.771C159.231 423.827 157.565 423.999 156.444 423.474C154.819 422.712 153.908 420.919 153.173 419.382C152.782 418.565 152.282 416.934 153.424 416.506C154.674 416.039 156.403 415.787 157.716 416.132C158.667 416.382 159.945 417.098 160.433 417.978C160.67 418.406 160.722 418.861 160.787 419.336C160.796 419.404 160.888 420.197 160.961 420.269C161.429 420.731 162.762 420.537 163.104 420.505C165.492 420.284 168.079 419.908 170.374 419.172C170.592 419.102 170.827 418.943 170.999 418.793C171.102 418.704 171.813 418.063 171.707 417.962C171.246 417.524 170.611 417.203 170.082 416.86C169.442 416.445 168.799 416.013 168.108 415.686C166.17 414.769 163.989 414.259 161.971 413.522C160.052 412.822 158.016 411.979 155.962 411.836C155.509 411.804 154.791 411.72 154.388 412.025C153.66 412.578 153.78 414.007 153.875 414.773C154.092 416.512 155.15 418.117 156.152 419.511C156.655 420.21 157.067 420.65 157.859 420.972C158.936 421.41 160.499 422.166 161.689 421.797C162.838 421.441 163.454 420.56 164.129 419.634C164.784 418.736 165.804 418.022 165.309 416.814C164.685 415.292 163.532 413.971 162.509 412.717C161.337 411.28 161.319 411.327 160.289 410.098C160.12 409.895 159.897 409.713 159.818 409.462C159.772 409.317 160.121 409.52 160.253 409.595C161.101 410.075 161.956 410.537 162.822 410.984C163.971 411.579 165.197 412.118 166.252 412.876C166.509 413.061 166.386 413.228 166.283 413.461C165.488 415.254 165.256 417.393 163.632 418.701C162.562 419.563 161.063 419.981 159.751 420.285C157.21 420.872 154.612 421.237 152.03 421.587C151.09 421.714 149.999 421.951 149.138 421.438C148.595 421.115 148.034 420.808 147.59 420.351C147.123 419.871 146.829 419.266 146.529 418.675C146.259 418.144 145.93 417.583 145.801 416.993C145.751 416.766 145.736 416.548 145.647 416.332C145.319 415.539 145.019 414.531 145.006 413.676C144.986 412.37 144.791 411.041 144.934 409.734C145.051 408.663 145.348 407.371 145.744 406.345C146.075 405.489 146.485 404.738 147.026 403.986C147.306 403.597 146.188 403.734 145.949 403.74C145.762 403.745 145.641 403.93 145.58 404.089C145.445 404.439 145.216 404.743 145.057 405.083C144.595 406.074 144.326 407.132 144.139 408.211C143.966 409.214 143.991 410.211 143.991 411.225C143.991 412.319 143.928 413.395 144.18 414.466C144.686 416.617 145.456 418.594 146.58 420.49C147.039 421.265 147.703 421.91 148.308 422.566C149.417 423.77 150.637 424.751 152.209 425.289C153.77 425.823 155.354 426.226 156.993 426.442C158.598 426.654 160.216 426.627 161.832 426.627C162.383 426.627 162.813 426.66 163.278 426.35" stroke="#FFFDF5" stroke-width="5.29816" stroke-linecap="round"/>
</svg>
