<svg width="198" height="231" viewBox="0 0 198 231" fill="none" xmlns="http://www.w3.org/2000/svg">
<path d="M195.861 16.1959C197.473 14.584 196.902 12.678 196.902 10.4305C196.902 9.18908 196.873 8.04599 195.687 7.51887C194.528 7.00351 193.211 7.17179 191.966 7.17179C190.013 7.17179 188.656 5.79214 187.145 4.70367C184.813 3.02349 180.632 2.66557 177.832 1.9656C172.848 0.719613 166.673 0.63763 161.693 1.9656C156.258 3.41475 150.774 3.62548 145.11 3.701C142.823 3.73149 140.531 3.63569 138.246 3.701C136.528 3.75008 134.536 4.46611 132.847 4.74224C129.964 5.21335 125.314 5.6001 123.032 7.65385C121.946 8.63105 119.282 8.93642 117.922 9.60135C116.295 10.3968 114.876 11.2715 113.449 12.3587C112.112 13.3772 111.088 14.5461 109.901 15.7331C106.318 19.3158 101.936 21.7553 98.1386 25.0464C94.9136 27.8413 93.3128 31.7279 89.5773 33.8969C85.2672 36.3996 80.8195 38.5692 76.5039 41.0506C71.5235 43.9144 67.1787 47.589 62.4087 50.7303C57.0917 54.2317 52.6379 58.9084 47.5035 62.6659C43.2701 65.7641 40.0691 69.9316 37.1683 74.3124C35.3159 77.1098 33.0924 79.6142 30.998 82.2181C26.5762 87.7154 23.7757 93.7034 20.547 99.9963C19.3317 102.365 17.9189 104.658 17.1148 107.208C16.4025 109.467 16.1057 111.78 15.4758 114.053C13.8864 119.789 11.4404 125.316 9.99965 131.079C8.3042 137.861 6.51966 144.632 5.39122 151.557C4.15188 159.162 3.40541 166.767 1.70831 174.31C0.868402 178.043 1.49621 182.293 1.49621 186.111C1.49621 190.301 1.79432 194.585 1.41909 198.76C1.13996 201.865 0.323801 206.372 2.19037 209.172" stroke="#FFFDF5" stroke-width="1.73714" stroke-linecap="round"/>
<path d="M1.14894 209.172C2.55716 209.348 3.48141 212.435 4.42692 213.337C7.71014 216.471 11.974 219.654 16.0734 221.744C19.0131 223.243 21.8518 224.989 24.9046 226.256C27.6248 227.385 32.6365 229.066 35.4327 227.143C36.037 226.728 36.5195 226.118 37.2452 225.755C38.8253 224.965 41.8015 225.929 43.4155 226.179C46.4564 226.651 49.4461 227.568 52.5167 227.837C60.7143 228.556 68.7602 226.873 76.8894 226.873C79.706 226.873 82.5868 226.42 85.3736 226.025C91.0068 225.226 96.6094 224.67 102.265 224.019C104.749 223.734 107.287 223.055 109.785 223.055C111.759 223.055 113.402 223.733 115.338 224.174C123.967 226.138 132.92 226.79 141.446 228.956C143.732 229.536 146.526 229.962 148.889 229.997C150.701 230.024 152.515 229.997 154.327 229.997C154.965 229.997 156.136 230.223 156.718 229.843C159.223 228.205 155.884 227.231 154.905 226.796C153.607 226.219 152.373 225.831 151.01 225.408C149.093 224.813 154.163 225.138 154.905 225.138C157.699 225.138 160.281 225.128 162.965 225.832C164.582 226.256 173.185 227.754 173.3 224.868C173.341 223.845 172.661 223.994 171.912 223.672C168.679 222.287 165.389 221.106 162.194 219.585C159.874 218.48 156.804 216.808 154.211 216.808C149.583 216.808 163.466 216.808 168.094 216.808C169.646 216.808 171.07 216.68 172.606 216.461C174.25 216.226 176.424 214.24 176.424 212.469C176.424 211.492 176.096 211.602 175.209 211.602C173.27 211.602 171.385 211.091 169.482 210.734C162.275 209.383 154.621 210.061 147.308 209.539C139.614 208.989 132.081 204.944 124.748 202.944C123.249 202.535 118.555 200.48 118.134 198.586C117.768 196.941 122.149 195.381 123.128 194.402C123.587 193.944 124.2 193.031 124.883 192.879C125.338 192.778 125.644 193.251 126.059 193.38C127.714 193.894 129.547 194.084 131.265 194.248C132.784 194.392 134.227 194.692 135.681 195.135C137.8 195.78 139.399 197.436 141.446 198.066C144.671 199.058 148.163 199.79 151.261 198.413C153.62 197.364 158.723 197.612 158.723 194.248C158.723 193.151 158.517 193.207 157.489 193.207C155.214 193.207 152.938 193.207 150.663 193.207C147.41 193.207 151.436 190.585 149.525 189.736C144.206 187.372 138.264 184.934 132.499 183.835C132.007 183.742 129.772 183.246 129.588 182.601C129.286 181.545 130.716 180.145 130.937 179.15C131.624 176.061 131.651 172.46 131.651 169.258" stroke="#FFFDF5" stroke-width="1.73714" stroke-linecap="round"/>
<path d="M119.156 146.351C119.156 152.007 124.478 155.942 127.332 160.427C128.791 162.72 130.533 164.774 132.152 166.983C133.229 168.451 135.699 168.634 137.32 169.528C138.565 170.214 140.108 170.967 141.099 171.957C142.078 172.937 141.986 173.839 142.603 174.985C142.867 175.475 143.15 175.718 143.606 176.007C145.347 177.111 146.631 178.821 148.311 180.017C152.571 183.05 156.516 185.217 161.75 186.111C165.212 186.702 168.4 187.776 171.796 188.617C174.584 189.308 177.645 189.602 180.512 189.736C181.259 189.77 181.72 189.55 182.325 189.119C183.754 188.098 185.092 186.582 186.297 185.378C186.853 184.822 184.754 183.98 184.754 183.141C184.754 182.459 184.811 181.753 183.925 181.753C183.039 181.753 185.834 181.654 186.489 181.059C187.292 180.329 189.197 179.18 189.266 177.935C189.318 176.997 188.525 177.167 187.839 177.434C184.949 178.558 181.547 178.498 178.507 178.976C175.93 179.382 173.47 179.67 170.871 179.67C169.13 179.67 168.379 178.948 166.879 178.282C165.973 177.879 165.084 176.989 164.199 176.469C161.842 175.086 159.463 173.744 157.103 172.362C154.804 171.016 152.374 169.901 150.316 168.217C148.454 166.693 147.43 164.67 145.727 163.011C144.112 161.437 142.184 159.996 140.482 158.498C137.399 155.786 135.878 152.294 134.389 148.53C133.223 145.582 132.185 142.794 131.381 139.756C131.226 139.173 131.058 137.898 130.61 137.674" stroke="#FFFDF5" stroke-width="1.73714" stroke-linecap="round"/>
<path d="M130.61 139.062C135.977 139.062 140.458 141.483 144.763 144.557C147.918 146.811 151.677 146.823 155.387 147.565C157.139 147.916 158.53 148.607 160.111 149.397C161.781 150.232 161.886 150.894 162.56 152.579C164.231 156.755 172.263 159.247 176.231 160.041C177.603 160.315 180.167 161.361 180.512 159.463C180.813 157.806 180.608 156.439 178.912 155.76C178.768 155.703 177.273 155.186 177.273 155.028C177.273 154.667 177.993 155.07 178.352 155.105C180.21 155.286 182.098 155.277 183.944 155.548C185.048 155.711 186.144 155.763 187.261 155.722C189.037 155.656 189.876 151.904 187.878 151.904C185.656 151.904 186.035 151.958 187.839 150.554C188.591 149.97 191.732 147.352 190.481 146.351C189.482 145.551 187.184 146.004 185.95 146.004C181.23 146.004 176.403 145.986 171.7 145.637C169.089 145.444 165.782 144.645 163.389 143.574C159.846 141.989 156.913 139.232 153.517 137.327C149.491 135.068 146.907 131.005 146.305 126.529C145.802 122.78 146.936 120.634 148.793 117.408C150.29 114.808 151.349 111.513 152.302 108.654C153.781 104.216 153.87 100.006 154.269 95.3493C154.485 92.828 155.2 90.347 155.599 87.8486C155.839 86.3519 156.573 84.973 156.641 83.4522C156.751 80.9615 157.235 78.1134 158.376 75.8936C160.246 72.2548 162.927 68.9662 164.97 65.4041C165.911 63.7654 167.087 59.755 168.788 58.8096C173.08 56.4256 176.885 53.3077 180.782 50.1904C184.725 47.0356 187.209 42.138 189.42 37.7148C190.351 35.8543 191.778 33.9776 192.39 31.988C193.29 29.0634 194.809 26.173 195.166 23.1375C195.375 21.3669 198.076 17.6729 195.861 16.1959" stroke="#FFFDF5" stroke-width="1.73714" stroke-linecap="round"/>
<path d="M195.167 17.2371C195.167 21.347 193.475 23.4024 190.616 26.2611C189.494 27.3835 187.921 28.0517 186.991 29.4041C185.855 31.056 184.118 32.5267 182.672 33.8969C180.123 36.3112 176.802 37.691 173.821 39.2959C170.96 40.8363 166.903 42.9209 163.582 42.9209" stroke="#FFFDF5" stroke-width="1.73714" stroke-linecap="round"/>
<path d="M185.795 12.0308C185.795 12.7252 186.621 13.4191 185.448 13.4191C185.025 13.4191 185.782 13.3715 185.969 13.2263C186.404 12.888 186.49 12.5517 186.49 12.0308" stroke="#FFFDF5" stroke-width="1.73714" stroke-linecap="round"/>
<path d="M163.582 21.749C163.582 18.8379 161.074 16.9707 158.55 15.8487C155.726 14.5936 153.39 14.715 151.088 16.8899C150.198 17.73 149.339 18.2917 148.484 19.1459C147.45 20.1804 147.175 22.4494 146.942 23.8508C146.485 26.5941 147.523 28.8942 150.046 30.1561C151.905 31.0856 157.361 30.7386 159.398 30.0597C161.557 29.34 162.888 25.6602 162.888 23.4844C162.888 21.5598 163.304 19.5035 161.673 18.124C160.079 16.7746 158.904 16.9806 157.007 17.2177C153.108 17.7051 149.177 17.8822 149.005 22.5203C148.949 24.044 148.658 25.5659 148.658 27.1288C148.658 29.2945 149.872 28.0922 151.261 28.8642C152.903 29.7763 156.755 29.0377 158.723 29.0377C161.767 29.0377 161.5 24.2011 161.5 22.1347C161.5 20.9981 161.937 17.6234 160.285 17.2563C157.836 16.712 159.92 24.2908 160.035 25.2584C160.288 27.3972 160.112 28.1534 160.112 25.5283C160.112 24.04 160.155 22.543 160.112 21.0549C160.088 20.2675 159.442 20.5555 159.417 19.9365C159.414 19.853 159.367 19.1683 159.34 19.2809C158.827 21.4629 159.283 23.7846 159.051 25.9911C158.948 26.9719 158.064 22.2289 158.029 23.2145C158.009 23.7784 158.289 27.7576 157.836 26.0104C157.654 25.3072 156.988 21.9672 156.988 24.41C156.988 25.011 157.201 26.0993 156.949 26.666C156.814 26.9714 155.992 25.6275 155.754 25.7597C155.511 25.8948 155.757 29.4542 155.098 28.3243C154.866 27.9263 154.558 26.9476 154.558 27.9965C154.558 28.3295 154.636 26.63 154.211 26.3382C154.172 26.3111 152.848 26.6082 152.649 26.6082C151.131 26.6082 149.684 27.4795 151.088 25.3741C151.285 25.078 152.224 22.7918 152.823 23.2145C153.345 23.5831 153.746 28.585 153.17 26.1647C152.717 24.2612 153.092 22.2756 155.522 22.4432C156.317 22.498 156.281 24.0953 156.101 23.9665C155.54 23.566 154.324 22.5659 154.231 21.8647C153.945 19.7256 157.543 19.0659 157.952 21.1706C158.051 21.68 155.005 19.734 155.33 19.1652C156.088 17.838 157.447 20.0975 157.605 20.6307C157.894 21.6048 156.754 20.2643 156.641 20.0908C155.637 18.556 159.301 18.7036 160.131 18.8374C161.79 19.105 158.384 18.5938 158.53 18.0083C158.635 17.5894 161.364 18.1242 160.42 18.259C158.972 18.4658 157.461 18.1519 156.005 18.2975C154.841 18.4138 154.513 20.827 154.288 21.749C153.822 23.6645 156.389 20.2894 157.258 21.267C157.746 21.8161 157.197 22.7659 156.564 22.7903C156.063 22.8095 155.353 22.7833 154.983 22.3661C154.768 22.1248 155.22 22.1635 155.33 22.2504C155.998 22.7792 156.02 23.892 155.735 24.6221C155.389 25.5061 152.891 25.1979 153.594 25.2198C154.437 25.2462 155.971 25.1249 156.487 25.9911C156.664 26.2884 156.831 27.5221 156.429 27.7458C155.551 28.2337 150.906 23.0373 156.834 25.914C156.94 25.9657 159.349 27.6108 157.991 27.6108C155.414 27.6108 158.95 27.1098 158.646 27.9193C158.583 28.0876 156.659 26.5478 156.525 26.3382C156.131 25.7193 158.685 26.0288 158.685 26.7624C158.685 27.0363 151.392 27.502 150.895 27.5723C150.602 27.6136 146.725 28.4019 147.54 28.3243C150.871 28.007 153.494 25.8879 154.558 22.636C154.726 22.1237 154.952 18.5768 154.52 20.3607C154.12 22.0117 153.058 26.6834 152.206 22.5203C152.176 22.3749 151.607 19.2147 151.435 19.4737C150.698 20.5783 150.487 22.3673 150.046 23.6001C149.634 24.7546 147.677 28.0087 149.564 25.5669C151.193 23.4591 153.135 21.4528 154.346 19.0302C154.774 18.1748 153.445 20.8136 152.649 21.3441C151.982 21.7889 151.696 21.0869 151.859 20.5535C152.477 18.5321 154.154 16.7918 154.867 14.6918C154.884 14.6409 155.667 12.4181 155.735 12.6864C156.002 13.755 156.007 16.1419 155.522 17.1599C155.349 17.525 153.359 16.8899 152.997 16.8899C152.016 16.8899 151.608 17.2241 151.512 18.3168C151.309 20.6187 151.591 22.997 151.705 25.297C151.747 26.1647 151.631 27.2872 151.955 28.1314C152.174 28.7014 153.818 31.584 154.828 30.3489C155.189 29.9082 155.119 26.9449 154.828 26.4732C154.558 26.0346 152.856 25.4856 152.823 26.3382C152.772 27.656 154.016 29.3886 153.344 30.5996C152.433 32.2387 155.873 30.8474 156.12 30.7924C158.442 30.2764 162.056 28.1187 163.158 25.914C164.96 22.3109 164.183 19.9216 160.979 17.4298C160.252 16.8642 158.564 16.258 157.605 15.9258C155.953 15.354 154.619 15.0547 152.823 15.1545C151.488 15.2287 149.216 17.8566 148.658 18.9724" stroke="#FFFDF5" stroke-width="1.73714" stroke-linecap="round"/>
<path d="M159.764 19.3196C158.873 19.3196 156.913 19.7327 158.954 20.0909C159.719 20.225 160.523 20.7079 161.287 20.7079C162.65 20.7079 158.56 20.6536 157.2 20.7272C155.506 20.8187 154.542 21.7491 152.784 21.7491C151.18 21.7491 147.963 20.7807 147.963 22.8675C147.963 23.8305 147.661 25.3531 147.963 26.2612C148.454 27.7344 148.303 22.5065 149.757 21.9612C151.331 21.3709 153.809 21.5956 155.445 21.9227C156.126 22.0588 157.302 21.9498 157.335 22.8675C157.358 23.5202 157.581 24.6401 156.949 25.0464C155.7 25.8492 154.753 25.2137 153.478 24.7572C151.316 23.9828 153.841 25.2981 154.558 25.567" stroke="#FFFDF5" stroke-width="1.73714" stroke-linecap="round"/>
</svg>
