<svg width="450" height="465" viewBox="0 0 450 465" fill="none" xmlns="http://www.w3.org/2000/svg">
<path d="M42.4998 309.869C43.2371 299.945 38.5047 288.952 35.823 279.617C33.9243 273.009 31.8849 266.359 30.361 259.652C27.8669 248.675 28.6718 236.318 30.3421 225.335C32.2021 213.105 31.3999 200.251 33.154 187.868C34.0521 181.528 34.9683 175.164 36.0459 168.853C37.1833 162.191 41.4691 156.166 44.2413 150.109C46.2377 145.747 46.9907 141.168 47.705 136.472C48.809 129.213 51.5891 122.324 54.2092 115.494C57.4478 107.051 63.2678 101.042 68.6549 93.9597C73.1897 87.9978 80.3415 84.0709 85.377 78.5441C92.962 70.2193 99.9116 61.6842 110.691 57.5938C122.197 53.2276 131.738 44.2091 142.814 38.9619C158.586 31.4903 176.698 26.7436 194.008 24.6198C200.843 23.7812 207.142 22.2346 213.936 23.2678C229.013 25.5608 244.254 27.1253 258.817 31.8038C276.491 37.4815 294.292 42.7472 311.996 48.3363C325.761 52.6817 342.795 57.2528 354.235 66.5188C356.672 68.4931 358.642 69.9861 360.488 72.494C365.049 78.6913 369.662 84.8428 374.408 90.9662C385.777 105.635 394.895 121.861 406.1 136.674C411.769 144.168 417.714 151.223 421.78 159.743C423.755 163.883 427.061 168.788 426.841 173.555C425.974 192.38 422.55 211.032 422.17 229.927C421.765 250.052 417.684 271.062 413.834 290.713C410.391 308.289 403.188 325.92 392.832 340.594C387.854 347.648 380.369 352.973 375.551 360.04C369.329 369.165 364.382 378.87 356.9 387.081C354.063 390.195 351.138 392.442 347.786 394.995C341.727 399.609 337.344 406.021 331.205 410.539C321.544 417.649 307.172 416.968 296.006 420.579C270.653 428.776 246.269 438.966 219.17 435.885C208.772 434.703 198.538 435.857 188.137 433.998C177.321 432.064 167.493 425.715 157.871 420.736C153.156 418.297 148.057 415.937 143.652 413.015C125.919 401.255 106.503 393.947 90.6436 379.191C83.1091 372.182 75.1658 365.696 69.53 357.06C63.8679 348.383 57.9444 340.229 52.9496 331.128C48.4386 322.908 46.2344 313.5 42.2745 305.025" stroke="#FFFDF5" stroke-width="4.96644" stroke-linecap="round"/>
<path d="M141.792 397.125C138.359 387.777 135.263 379.944 133.349 370.4C131.836 362.848 127.896 356.666 125.737 349.466C123.74 342.813 125.308 333.881 121.027 328.065C116.009 321.246 111.323 314.337 106.974 306.954C103.439 300.951 99.5938 296.512 97.5037 289.8C96.2119 285.651 95.9415 281.387 95.5935 277.056C95.0574 270.382 92.0176 258.035 96.451 252.44C104.544 242.226 119.177 240.716 131.619 242.609C148.557 245.185 158.01 258.732 166.063 272.326C169.197 277.617 174.862 287.234 171.736 293.713C168.987 299.414 164.157 304.163 161.383 309.777C156.55 319.557 155.581 331.764 153.959 342.427C152.587 351.447 151.215 360.468 149.843 369.488C148.996 375.06 148.149 380.632 147.301 386.205C146.611 390.741 143.1 394.85 142.446 399.149" stroke="#FFFDF5" stroke-width="4.96644" stroke-linecap="round"/>
<path d="M333.671 331.062C334.579 325.089 336.228 322.499 341.315 318.755C345.273 315.842 354.141 315.797 356.849 320.637C361.329 328.643 337.859 335.547 333.099 334.823" stroke="#FFFDF5" stroke-width="4.96644" stroke-linecap="round"/>
<path d="M310.482 337.69C304.113 348.525 292.844 365.26 277.828 362.976C263.549 360.804 262.063 341.654 261.926 329.771C261.756 315.112 263.237 299.064 256.9 285.5C254.427 280.207 248.69 275.243 244.73 270.982C240.076 265.972 234.098 262.713 229.999 257.143C223.34 248.096 219.991 237.197 221.701 225.95C222.518 220.579 225.999 216.81 228.95 212.728C236.496 202.289 253.521 199.369 264.526 206.54C271.919 211.358 279.249 215.903 286.37 221.407C291.876 225.663 294.198 232.56 302.072 232.026C308.09 231.618 314.09 232.838 320.089 233.751C323.528 234.274 339.012 239.441 340.18 242.579C343.768 252.224 340.11 263.419 338.586 273.443C336.698 285.853 330.503 297.225 326.896 309.186C323.814 319.409 315.876 328.514 310.482 337.69Z" stroke="#FFFDF5" stroke-width="4.96644" stroke-linecap="round"/>
<path d="M116.573 240.32C117.142 230.903 114.38 221.042 114.427 211.559C114.441 208.71 116.745 192.269 117.078 192.721C120.01 196.705 120.273 204.329 121.324 209.081C123.106 217.131 127.369 222.28 132.326 228.82C134.892 232.205 137.841 235.858 142.166 236.516C145.504 237.024 150.562 238.241 151.233 233.833C152.073 228.306 151.218 227.991 146.878 224.512C139.909 218.925 136.761 213.17 132.96 204.971C131.518 201.861 122.674 184.893 130.239 183.498C142.018 181.327 150.511 176.357 159.122 167.901C164.672 162.451 169.786 156.117 170.972 148.324C171.712 143.457 168.059 142.322 174.828 143.352C176.493 143.605 183.95 143.734 181.675 139.797C179.896 136.717 175.372 136.203 173.469 133.311C172.645 132.058 182.97 128.823 184.716 127.538C187.56 125.445 189.271 122.887 189.796 119.438C191.582 107.696 183.213 97.5521 170.47 99.6095C167.809 100.039 165.859 101.602 163.485 102.663C159.635 104.384 160.45 101.49 159.604 97.957C157.988 91.207 155.029 82.3528 156.102 75.2967C156.655 71.6603 161.174 71.7147 164 70.4582C167.527 68.89 169.822 66.5661 171.62 63.2257C172.608 61.3911 174.012 58.7455 173.419 62.6441C172.397 69.3657 171.375 76.0873 170.353 82.8089C169.556 88.0445 169.961 91.0395 176.699 91.6845C182.037 92.1954 184.098 74.4849 184.563 71.6079C185.937 63.1066 187.153 54.5763 188.448 46.0624C189.085 41.8774 189.026 34.0208 192.657 31.042C193.653 30.2244 195.925 31.1119 196.836 31.6776C199.114 33.0924 191.857 29.5308 189.206 29.1276C186.99 28.7905 179.497 27.7727 178.31 30.8377C177.345 33.3296 177.995 36.2449 176.134 38.4706C174.238 40.7372 166.871 38.2378 164.466 37.872C159.947 37.1848 155.818 36.9926 151.367 36.842C148.845 36.7567 147.247 39.1017 144.356 38.6619" stroke="#FFFDF5" stroke-width="4.96644" stroke-linecap="round"/>
<path d="M106.455 243.592C105.737 237.39 95.6875 229.986 91.3744 225.371C83.2242 216.65 74.7793 207.688 65.7475 199.88C61.3258 196.058 54.499 195.283 48.9895 194.445C43.1782 193.561 39.8578 191.972 34.8435 189.408" stroke="#FFFDF5" stroke-width="4.96644" stroke-linecap="round"/>
<path d="M204.887 83.4644C205.959 76.4156 208.394 68.5482 208.188 61.411C208.1 58.3794 201.598 55.3026 199.917 52.8842C197.232 49.0219 201.395 36.8409 202.123 32.0541C202.69 28.3231 207.832 31.3976 209.717 32.728C213.491 35.3917 215.08 37.0875 219.769 37.624C224.967 38.2186 229.433 32.6388 234.666 33.155C240.252 33.7061 235.067 43.1706 234.513 46.8145C233.551 53.1414 228.975 61.0452 225.547 66.4029C222.806 70.6872 218.217 72.1752 215.368 76.3997C213.144 79.6984 210.454 83.4527 206.625 84.6907" stroke="#FFFDF5" stroke-width="4.96644" stroke-linecap="round"/>
<path d="M223.612 80.5396C227.766 81.1714 237.974 80.9898 237.001 87.3863C236.571 90.2141 232.751 89.6261 230.408 89.2698C224.373 88.352 224.656 85.8921 222.528 81.3369" stroke="#FFFDF5" stroke-width="4.96644" stroke-linecap="round"/>
<path d="M272.023 141.778C266.254 140.149 280.136 120.064 280.514 117.575C281.258 112.687 280.961 120.868 280.855 122.009C280.591 124.864 279.996 132.238 282.243 134.674C283.979 136.555 276.169 139.592 274.987 141.267" stroke="#FFFDF5" stroke-width="4.96644" stroke-linecap="round"/>
<path d="M305.321 118.942C298.994 117.98 294.853 118.181 295.978 110.787C296.451 107.68 296.077 100.224 299.686 99.0575C304.897 97.3725 306.619 96.0281 308.547 91.0515C310.077 87.1013 314.767 85.5934 318.723 86.3457C323.798 87.311 325.213 96.7214 330.061 98.5994C337.072 101.315 346.314 103.211 353.822 102.267C360.107 101.476 368.331 96.7765 374.452 97.7073C377.392 98.1544 377.763 100.825 379.992 102.398" stroke="#FFFDF5" stroke-width="4.96644" stroke-linecap="round"/>
<path d="M308.141 119.371C308.699 115.704 308.741 112.066 310.864 109.202C313.3 105.915 310.76 114.806 310.515 116.418C310.193 118.534 310.872 120.397 310.605 122.151C309.859 127.054 300.981 130.789 296.409 130.094C291.334 129.322 288.25 131.989 287.129 137.341C286.143 142.05 275.593 139.376 271.923 139.625C265.051 140.091 265.069 143.221 264.082 149.71C263.521 153.404 266.9 156.957 267.159 160.761C267.383 164.067 264.288 162.73 262.099 162.397C258.286 161.817 255.797 162.207 252.351 163.587C248.498 165.129 240.229 169.658 239.256 173.781C237.651 180.578 230.696 185.784 229.663 192.579C228.614 199.474 246.178 205.93 252.425 204.219C259.499 202.282 263.988 195.095 271.44 194.817C276.517 194.628 279.984 200.25 282.76 204.022C286.597 209.234 293.729 213.018 297.003 218.267C300.337 223.612 309.869 224.7 315.273 226.765C317.582 227.647 321.985 234.039 321.5 233.965" stroke="#FFFDF5" stroke-width="4.96644" stroke-linecap="round"/>
<path d="M343.067 243.98C341.422 254.795 340.43 261.829 347.187 271.01C349.345 273.942 358.653 272.326 361.564 272.769C367.729 273.706 373.893 274.644 380.057 275.581C386.471 276.557 393.079 285.381 393.499 291.576C393.816 296.248 391.819 301.488 391.335 306.159C390.749 311.81 393.245 314.971 395.054 319.659C396.245 322.746 400.65 323.908 401.639 326.967" stroke="#FFFDF5" stroke-width="4.96644" stroke-linecap="round"/>
<path d="M313.627 197.171C313.258 199.595 321.903 208.072 324.808 209.401C327.533 210.648 331.874 212.144 334.709 212.831C338.549 213.761 338.476 212.102 338.812 208.698C339.241 204.342 331.046 198.15 328.323 195.077C325.402 191.781 315.754 190.468 313.115 194.207" stroke="#FFFDF5" stroke-width="4.96644" stroke-linecap="round"/>
<path d="M339.619 89.5236C345.172 90.3682 351.402 92.2702 356.97 92.1091C359.261 92.0428 359.748 90.7456 359.937 88.7655C360.188 86.1513 355.06 84.9909 353.164 84.1008C349.313 82.2928 342.215 81.5592 338.197 83.054C334.655 84.3719 334.185 88.4345 337.595 90.1779" stroke="#FFFDF5" stroke-width="4.96644" stroke-linecap="round"/>
</svg>
